<svg id="Layer_1" data-name="Layer 1" xmlns="http://www.w3.org/2000/svg" viewBox="0 0 1102 123"><defs><style>.cls-1{fill:#fcefe4;}.cls-2{fill:#f16889;}.cls-3{fill:#5b5288;}.cls-4{fill:#0c1b33;}</style></defs><title>mountains-top</title><path class="cls-1" d="M551,73a50,50,0,0,0-50,50H601A50,50,0,0,0,551,73Z"/><polygon class="cls-2" points="481 88.71 449 123 513 123 481 88.71"/><polygon class="cls-2" points="302.5 65.67 249 123 356 123 302.5 65.67"/><polygon class="cls-2" points="259.5 50.67 192 123 327 123 259.5 50.67"/><polygon class="cls-2" points="369.11 82.39 331.21 123 407 123 369.11 82.39"/><polygon class="cls-2" points="86.81 66 33.62 123 140 123 86.81 66"/><polygon class="cls-2" points="32.66 88 0 123 65.32 123 32.66 88"/><polygon class="cls-3" points="454.02 77 411.09 123 496.94 123 454.02 77"/><polygon class="cls-3" points="327.38 59.11 267.76 123 387 123 327.38 59.11"/><polygon class="cls-3" points="146 29.77 59 123 233 123 146 29.77"/><polygon class="cls-4" points="454 94.07 427 123 481 123 454 94.07"/><polygon class="cls-4" points="400 81.21 361 123 439 123 400 81.21"/><polygon class="cls-4" points="339.5 72.1 292 123 387 123 339.5 72.1"/><polygon class="cls-4" points="205 14.77 104 123 306 123 205 14.77"/><polygon class="cls-4" points="312 75.85 268 123 356 123 312 75.85"/><polygon class="cls-4" points="99.5 79.6 59 123 140 123 99.5 79.6"/><polygon class="cls-2" points="621 88.71 653 123 589 123 621 88.71"/><polygon class="cls-2" points="799.5 65.67 853 123 746 123 799.5 65.67"/><polygon class="cls-2" points="842.5 50.67 910 123 775 123 842.5 50.67"/><polygon class="cls-2" points="732.89 82.39 770.79 123 695 123 732.89 82.39"/><polygon class="cls-2" points="1015.19 66 1068.38 123 962 123 1015.19 66"/><polygon class="cls-2" points="1069.34 88 1102 123 1036.68 123 1069.34 88"/><polygon class="cls-3" points="647.98 77 690.91 123 605.06 123 647.98 77"/><polygon class="cls-3" points="774.62 59.11 834.24 123 715 123 774.62 59.11"/><polygon class="cls-3" points="956 29.77 1043 123 869 123 956 29.77"/><polygon class="cls-4" points="648 94.07 675 123 621 123 648 94.07"/><polygon class="cls-4" points="702 81.21 741 123 663 123 702 81.21"/><polygon class="cls-4" points="762.5 72.1 810 123 715 123 762.5 72.1"/><polygon class="cls-4" points="897 14.77 998 123 796 123 897 14.77"/><polygon class="cls-4" points="790 75.85 834 123 746 123 790 75.85"/><polygon class="cls-4" points="1002.5 79.6 1043 123 962 123 1002.5 79.6"/></svg>